<?xml version="1.0" encoding="utf-8"?>
<!-- Generator: Adobe Illustrator 17.0.0, SVG Export Plug-In . SVG Version: 6.00 Build 0)  -->
<!DOCTYPE svg PUBLIC "-//W3C//DTD SVG 1.1//EN" "http://www.w3.org/Graphics/SVG/1.1/DTD/svg11.dtd">
<svg version="1.1" id="Capa_1" xmlns="http://www.w3.org/2000/svg" xmlns:xlink="http://www.w3.org/1999/xlink" x="0px" y="0px"
	 width="22px" height="22px" viewBox="0 0 22 22" enable-background="new 0 0 22 22" xml:space="preserve">
<title>Shape</title>
<path fill="#424242" d="M0,11c0,4.86,3.151,8.983,7.523,10.437c0.55,0.1,0.75-0.24,0.75-0.53c0-0.26-0.01-1.128-0.015-2.046
	c-3.06,0.665-3.705-1.297-3.705-1.297c-0.5-1.27-1.222-1.608-1.222-1.608c-0.998-0.682,0.077-0.67,0.077-0.67
	c1.105,0.078,1.686,1.134,1.686,1.134c0.982,1.68,2.576,1.195,3.2,0.913c0.1-0.71,0.386-1.196,0.7-1.47
	c-2.442-0.277-5.01-1.22-5.01-5.436c0-1.202,0.428-2.182,1.13-2.952c-0.112-0.28-0.49-1.4,0.11-2.913c0,0,0.922-0.295,3.024,1.128
	c0.877-0.245,1.818-0.366,2.753-0.37c0.935,0.004,1.876,0.126,2.754,0.37c2.1-1.423,3.023-1.127,3.023-1.127
	c0.6,1.516,0.223,2.634,0.11,2.912c0.705,0.77,1.13,1.75,1.13,2.952c0,4.225-2.572,5.156-5.023,5.428
	c0.396,0.342,0.747,1.01,0.747,2.036c0,1.47-0.014,2.657-0.014,3.02c0,0.292,0.2,0.635,0.757,0.527C18.85,19.98,22,15.857,22,11
	c0-6.075-4.925-11-11-11S0,4.925,0,11z"/>
</svg>
